<mxfile host="app.diagrams.net" modified="2023-06-16T05:48:12.795Z" agent="Mozilla/5.0 (Windows NT 10.0; Win64; x64) AppleWebKit/537.36 (KHTML, like Gecko) Chrome/114.0.0.0 Safari/537.36" etag="-4_mhK9VgLX-35DT-wYA" version="21.4.0" type="device">
  <diagram name="Page-1" id="IsqJClVJ_lkCke2VJtly">
    <mxGraphModel dx="3272" dy="2107" grid="1" gridSize="10" guides="1" tooltips="1" connect="1" arrows="1" fold="1" page="1" pageScale="1" pageWidth="850" pageHeight="1100" math="0" shadow="0">
      <root>
        <mxCell id="0" />
        <mxCell id="1" parent="0" />
        <mxCell id="-CM3HtUl9LFQLTtHMWqZ-5" value="" style="edgeStyle=orthogonalEdgeStyle;rounded=0;orthogonalLoop=1;jettySize=auto;html=1;" parent="1" source="-CM3HtUl9LFQLTtHMWqZ-1" target="-CM3HtUl9LFQLTtHMWqZ-4" edge="1">
          <mxGeometry relative="1" as="geometry" />
        </mxCell>
        <mxCell id="-CM3HtUl9LFQLTtHMWqZ-6" value="" style="edgeStyle=orthogonalEdgeStyle;rounded=0;orthogonalLoop=1;jettySize=auto;html=1;" parent="1" source="-CM3HtUl9LFQLTtHMWqZ-1" target="-CM3HtUl9LFQLTtHMWqZ-4" edge="1">
          <mxGeometry relative="1" as="geometry" />
        </mxCell>
        <mxCell id="-CM3HtUl9LFQLTtHMWqZ-20" value="" style="edgeStyle=orthogonalEdgeStyle;rounded=0;orthogonalLoop=1;jettySize=auto;html=1;" parent="1" source="-CM3HtUl9LFQLTtHMWqZ-1" target="-CM3HtUl9LFQLTtHMWqZ-4" edge="1">
          <mxGeometry relative="1" as="geometry" />
        </mxCell>
        <mxCell id="-CM3HtUl9LFQLTtHMWqZ-27" value="" style="edgeStyle=orthogonalEdgeStyle;rounded=0;orthogonalLoop=1;jettySize=auto;html=1;" parent="1" source="-CM3HtUl9LFQLTtHMWqZ-1" target="-CM3HtUl9LFQLTtHMWqZ-26" edge="1">
          <mxGeometry relative="1" as="geometry" />
        </mxCell>
        <mxCell id="-CM3HtUl9LFQLTtHMWqZ-29" value="" style="edgeStyle=orthogonalEdgeStyle;rounded=0;orthogonalLoop=1;jettySize=auto;html=1;" parent="1" source="-CM3HtUl9LFQLTtHMWqZ-1" target="-CM3HtUl9LFQLTtHMWqZ-28" edge="1">
          <mxGeometry relative="1" as="geometry" />
        </mxCell>
        <mxCell id="-CM3HtUl9LFQLTtHMWqZ-31" value="" style="edgeStyle=orthogonalEdgeStyle;rounded=0;orthogonalLoop=1;jettySize=auto;html=1;" parent="1" source="-CM3HtUl9LFQLTtHMWqZ-1" target="-CM3HtUl9LFQLTtHMWqZ-30" edge="1">
          <mxGeometry relative="1" as="geometry" />
        </mxCell>
        <mxCell id="-CM3HtUl9LFQLTtHMWqZ-33" value="" style="edgeStyle=orthogonalEdgeStyle;rounded=0;orthogonalLoop=1;jettySize=auto;html=1;" parent="1" source="-CM3HtUl9LFQLTtHMWqZ-1" target="-CM3HtUl9LFQLTtHMWqZ-32" edge="1">
          <mxGeometry relative="1" as="geometry" />
        </mxCell>
        <mxCell id="-CM3HtUl9LFQLTtHMWqZ-36" value="" style="edgeStyle=orthogonalEdgeStyle;rounded=0;orthogonalLoop=1;jettySize=auto;html=1;" parent="1" source="-CM3HtUl9LFQLTtHMWqZ-1" target="-CM3HtUl9LFQLTtHMWqZ-35" edge="1">
          <mxGeometry relative="1" as="geometry" />
        </mxCell>
        <mxCell id="-CM3HtUl9LFQLTtHMWqZ-40" value="" style="edgeStyle=orthogonalEdgeStyle;rounded=0;orthogonalLoop=1;jettySize=auto;html=1;" parent="1" source="-CM3HtUl9LFQLTtHMWqZ-1" target="-CM3HtUl9LFQLTtHMWqZ-39" edge="1">
          <mxGeometry relative="1" as="geometry" />
        </mxCell>
        <mxCell id="-CM3HtUl9LFQLTtHMWqZ-41" value="" style="edgeStyle=orthogonalEdgeStyle;rounded=0;orthogonalLoop=1;jettySize=auto;html=1;" parent="1" source="-CM3HtUl9LFQLTtHMWqZ-1" target="-CM3HtUl9LFQLTtHMWqZ-4" edge="1">
          <mxGeometry relative="1" as="geometry" />
        </mxCell>
        <mxCell id="-CM3HtUl9LFQLTtHMWqZ-42" value="" style="edgeStyle=orthogonalEdgeStyle;rounded=0;orthogonalLoop=1;jettySize=auto;html=1;" parent="1" source="-CM3HtUl9LFQLTtHMWqZ-1" target="-CM3HtUl9LFQLTtHMWqZ-4" edge="1">
          <mxGeometry relative="1" as="geometry" />
        </mxCell>
        <mxCell id="-CM3HtUl9LFQLTtHMWqZ-43" value="" style="edgeStyle=orthogonalEdgeStyle;rounded=0;orthogonalLoop=1;jettySize=auto;html=1;" parent="1" source="-CM3HtUl9LFQLTtHMWqZ-1" target="-CM3HtUl9LFQLTtHMWqZ-4" edge="1">
          <mxGeometry relative="1" as="geometry" />
        </mxCell>
        <mxCell id="-CM3HtUl9LFQLTtHMWqZ-45" value="" style="edgeStyle=orthogonalEdgeStyle;rounded=0;orthogonalLoop=1;jettySize=auto;html=1;" parent="1" source="-CM3HtUl9LFQLTtHMWqZ-26" target="-CM3HtUl9LFQLTtHMWqZ-44" edge="1">
          <mxGeometry relative="1" as="geometry" />
        </mxCell>
        <mxCell id="-CM3HtUl9LFQLTtHMWqZ-48" value="" style="edgeStyle=orthogonalEdgeStyle;rounded=0;orthogonalLoop=1;jettySize=auto;html=1;" parent="1" source="-CM3HtUl9LFQLTtHMWqZ-28" target="-CM3HtUl9LFQLTtHMWqZ-47" edge="1">
          <mxGeometry relative="1" as="geometry" />
        </mxCell>
        <mxCell id="-CM3HtUl9LFQLTtHMWqZ-50" value="" style="edgeStyle=orthogonalEdgeStyle;rounded=0;orthogonalLoop=1;jettySize=auto;html=1;" parent="1" source="-CM3HtUl9LFQLTtHMWqZ-1" target="-CM3HtUl9LFQLTtHMWqZ-49" edge="1">
          <mxGeometry relative="1" as="geometry" />
        </mxCell>
        <mxCell id="-CM3HtUl9LFQLTtHMWqZ-52" value="" style="edgeStyle=orthogonalEdgeStyle;rounded=0;orthogonalLoop=1;jettySize=auto;html=1;" parent="1" source="-CM3HtUl9LFQLTtHMWqZ-30" target="-CM3HtUl9LFQLTtHMWqZ-51" edge="1">
          <mxGeometry relative="1" as="geometry" />
        </mxCell>
        <mxCell id="-CM3HtUl9LFQLTtHMWqZ-54" value="" style="edgeStyle=orthogonalEdgeStyle;rounded=0;orthogonalLoop=1;jettySize=auto;html=1;" parent="1" source="-CM3HtUl9LFQLTtHMWqZ-44" target="-CM3HtUl9LFQLTtHMWqZ-53" edge="1">
          <mxGeometry relative="1" as="geometry" />
        </mxCell>
        <mxCell id="-CM3HtUl9LFQLTtHMWqZ-1" value="&lt;b&gt;&lt;font style=&quot;font-size: 24px;&quot;&gt;carreras&lt;/font&gt;&lt;/b&gt;" style="rounded=0;whiteSpace=wrap;html=1;" parent="1" vertex="1">
          <mxGeometry x="328" y="220" width="120" height="60" as="geometry" />
        </mxCell>
        <mxCell id="-CM3HtUl9LFQLTtHMWqZ-34" value="" style="edgeStyle=orthogonalEdgeStyle;rounded=0;orthogonalLoop=1;jettySize=auto;html=1;" parent="1" source="-CM3HtUl9LFQLTtHMWqZ-2" target="-CM3HtUl9LFQLTtHMWqZ-32" edge="1">
          <mxGeometry relative="1" as="geometry" />
        </mxCell>
        <mxCell id="-CM3HtUl9LFQLTtHMWqZ-66" value="" style="edgeStyle=orthogonalEdgeStyle;rounded=0;orthogonalLoop=1;jettySize=auto;html=1;" parent="1" source="-CM3HtUl9LFQLTtHMWqZ-2" target="-CM3HtUl9LFQLTtHMWqZ-65" edge="1">
          <mxGeometry relative="1" as="geometry" />
        </mxCell>
        <mxCell id="-CM3HtUl9LFQLTtHMWqZ-68" value="" style="edgeStyle=orthogonalEdgeStyle;rounded=0;orthogonalLoop=1;jettySize=auto;html=1;" parent="1" source="-CM3HtUl9LFQLTtHMWqZ-2" target="-CM3HtUl9LFQLTtHMWqZ-67" edge="1">
          <mxGeometry relative="1" as="geometry" />
        </mxCell>
        <mxCell id="-CM3HtUl9LFQLTtHMWqZ-70" value="" style="edgeStyle=orthogonalEdgeStyle;rounded=0;orthogonalLoop=1;jettySize=auto;html=1;" parent="1" source="-CM3HtUl9LFQLTtHMWqZ-2" target="-CM3HtUl9LFQLTtHMWqZ-69" edge="1">
          <mxGeometry relative="1" as="geometry" />
        </mxCell>
        <mxCell id="-CM3HtUl9LFQLTtHMWqZ-2" value="&lt;span style=&quot;font-size: 24px;&quot;&gt;&lt;b&gt;tipos_carreras&lt;/b&gt;&lt;/span&gt;" style="rounded=0;whiteSpace=wrap;html=1;" parent="1" vertex="1">
          <mxGeometry x="698" y="220" width="200" height="60" as="geometry" />
        </mxCell>
        <mxCell id="-CM3HtUl9LFQLTtHMWqZ-38" value="" style="edgeStyle=orthogonalEdgeStyle;rounded=0;orthogonalLoop=1;jettySize=auto;html=1;" parent="1" source="-CM3HtUl9LFQLTtHMWqZ-3" target="-CM3HtUl9LFQLTtHMWqZ-35" edge="1">
          <mxGeometry relative="1" as="geometry" />
        </mxCell>
        <mxCell id="-CM3HtUl9LFQLTtHMWqZ-61" value="" style="edgeStyle=orthogonalEdgeStyle;rounded=0;orthogonalLoop=1;jettySize=auto;html=1;" parent="1" source="-CM3HtUl9LFQLTtHMWqZ-3" target="-CM3HtUl9LFQLTtHMWqZ-60" edge="1">
          <mxGeometry relative="1" as="geometry" />
        </mxCell>
        <mxCell id="-CM3HtUl9LFQLTtHMWqZ-62" value="" style="edgeStyle=orthogonalEdgeStyle;rounded=0;orthogonalLoop=1;jettySize=auto;html=1;" parent="1" source="-CM3HtUl9LFQLTtHMWqZ-3" target="-CM3HtUl9LFQLTtHMWqZ-60" edge="1">
          <mxGeometry relative="1" as="geometry" />
        </mxCell>
        <mxCell id="-CM3HtUl9LFQLTtHMWqZ-64" value="" style="edgeStyle=orthogonalEdgeStyle;rounded=0;orthogonalLoop=1;jettySize=auto;html=1;" parent="1" source="-CM3HtUl9LFQLTtHMWqZ-3" target="-CM3HtUl9LFQLTtHMWqZ-63" edge="1">
          <mxGeometry relative="1" as="geometry" />
        </mxCell>
        <mxCell id="-CM3HtUl9LFQLTtHMWqZ-3" value="&lt;b&gt;&lt;font style=&quot;font-size: 24px;&quot;&gt;paises&lt;/font&gt;&lt;/b&gt;" style="rounded=0;whiteSpace=wrap;html=1;" parent="1" vertex="1">
          <mxGeometry x="328" y="510" width="120" height="60" as="geometry" />
        </mxCell>
        <mxCell id="-CM3HtUl9LFQLTtHMWqZ-4" value="&lt;b&gt;&lt;u&gt;&lt;font style=&quot;font-size: 16px;&quot;&gt;carrera_id&lt;/font&gt;&lt;/u&gt;&lt;/b&gt;" style="ellipse;whiteSpace=wrap;html=1;rounded=0;" parent="1" vertex="1">
          <mxGeometry x="328" y="20" width="120" height="80" as="geometry" />
        </mxCell>
        <mxCell id="-CM3HtUl9LFQLTtHMWqZ-32" value="&lt;font style=&quot;font-size: 18px;&quot;&gt;&lt;b&gt;pertenece&lt;/b&gt;&lt;/font&gt;" style="rhombus;whiteSpace=wrap;html=1;rounded=0;" parent="1" vertex="1">
          <mxGeometry x="508" y="190" width="130" height="120" as="geometry" />
        </mxCell>
        <mxCell id="-CM3HtUl9LFQLTtHMWqZ-35" value="&lt;font style=&quot;font-size: 18px;&quot;&gt;&lt;b&gt;se corre&lt;/b&gt;&lt;/font&gt;" style="rhombus;whiteSpace=wrap;html=1;rounded=0;" parent="1" vertex="1">
          <mxGeometry x="316.12" y="330" width="143.75" height="120" as="geometry" />
        </mxCell>
        <mxCell id="-CM3HtUl9LFQLTtHMWqZ-39" value="&lt;font style=&quot;font-size: 16px;&quot;&gt;mejor_tiempo&lt;/font&gt;" style="ellipse;whiteSpace=wrap;html=1;rounded=0;" parent="1" vertex="1">
          <mxGeometry x="83" y="500" width="110" height="80" as="geometry" />
        </mxCell>
        <mxCell id="-CM3HtUl9LFQLTtHMWqZ-46" value="" style="edgeStyle=orthogonalEdgeStyle;rounded=0;orthogonalLoop=1;jettySize=auto;html=1;" parent="1" source="-CM3HtUl9LFQLTtHMWqZ-1" target="-CM3HtUl9LFQLTtHMWqZ-26" edge="1">
          <mxGeometry relative="1" as="geometry">
            <mxPoint x="328" y="250" as="sourcePoint" />
            <mxPoint x="138" y="150" as="targetPoint" />
          </mxGeometry>
        </mxCell>
        <mxCell id="-CM3HtUl9LFQLTtHMWqZ-26" value="&lt;font style=&quot;font-size: 16px;&quot;&gt;&lt;u&gt;&lt;i&gt;tipo_carrera&lt;/i&gt;&lt;/u&gt;&lt;/font&gt;" style="ellipse;whiteSpace=wrap;html=1;rounded=0;" parent="1" vertex="1">
          <mxGeometry x="-32" y="210" width="110" height="80" as="geometry" />
        </mxCell>
        <mxCell id="-CM3HtUl9LFQLTtHMWqZ-47" value="&lt;font style=&quot;font-size: 16px;&quot;&gt;altitud&lt;/font&gt;" style="ellipse;whiteSpace=wrap;html=1;rounded=0;" parent="1" vertex="1">
          <mxGeometry x="98" y="600" width="80" height="80" as="geometry" />
        </mxCell>
        <mxCell id="-CM3HtUl9LFQLTtHMWqZ-49" value="&lt;font style=&quot;font-size: 16px;&quot;&gt;nombre&lt;/font&gt;" style="ellipse;whiteSpace=wrap;html=1;rounded=0;" parent="1" vertex="1">
          <mxGeometry x="228" y="30" width="80" height="80" as="geometry" />
        </mxCell>
        <mxCell id="-CM3HtUl9LFQLTtHMWqZ-51" value="&lt;font style=&quot;font-size: 16px;&quot;&gt;&lt;u&gt;&lt;i&gt;pais&lt;/i&gt;&lt;/u&gt;&lt;/font&gt;" style="ellipse;whiteSpace=wrap;html=1;rounded=0;" parent="1" vertex="1">
          <mxGeometry x="98" y="720" width="80" height="80" as="geometry" />
        </mxCell>
        <mxCell id="-CM3HtUl9LFQLTtHMWqZ-53" value="&lt;font style=&quot;font-size: 16px;&quot;&gt;foto&lt;/font&gt;" style="ellipse;whiteSpace=wrap;html=1;rounded=0;" parent="1" vertex="1">
          <mxGeometry x="98" y="-10" width="80" height="80" as="geometry" />
        </mxCell>
        <mxCell id="-CM3HtUl9LFQLTtHMWqZ-55" value="" style="edgeStyle=orthogonalEdgeStyle;rounded=0;orthogonalLoop=1;jettySize=auto;html=1;" parent="1" source="-CM3HtUl9LFQLTtHMWqZ-1" target="-CM3HtUl9LFQLTtHMWqZ-44" edge="1">
          <mxGeometry relative="1" as="geometry">
            <mxPoint x="328" y="250" as="sourcePoint" />
            <mxPoint x="138" y="40" as="targetPoint" />
          </mxGeometry>
        </mxCell>
        <mxCell id="-CM3HtUl9LFQLTtHMWqZ-44" value="&lt;font style=&quot;font-size: 16px;&quot;&gt;lugar&lt;/font&gt;" style="ellipse;whiteSpace=wrap;html=1;rounded=0;" parent="1" vertex="1">
          <mxGeometry x="98" y="110" width="80" height="80" as="geometry" />
        </mxCell>
        <mxCell id="-CM3HtUl9LFQLTtHMWqZ-56" value="&lt;font style=&quot;font-size: 14px;&quot;&gt;&lt;b&gt;1&lt;/b&gt;&lt;/font&gt;" style="text;strokeColor=none;align=center;fillColor=none;html=1;verticalAlign=middle;whiteSpace=wrap;rounded=0;" parent="1" vertex="1">
          <mxGeometry x="463" y="210" width="60" height="30" as="geometry" />
        </mxCell>
        <mxCell id="-CM3HtUl9LFQLTtHMWqZ-57" value="&lt;font style=&quot;font-size: 14px;&quot;&gt;&lt;b&gt;M&lt;/b&gt;&lt;/font&gt;" style="text;strokeColor=none;align=center;fillColor=none;html=1;verticalAlign=middle;whiteSpace=wrap;rounded=0;" parent="1" vertex="1">
          <mxGeometry x="628" y="210" width="60" height="30" as="geometry" />
        </mxCell>
        <mxCell id="-CM3HtUl9LFQLTtHMWqZ-60" value="&lt;font style=&quot;font-size: 16px;&quot;&gt;nombre&lt;/font&gt;" style="ellipse;whiteSpace=wrap;html=1;rounded=0;" parent="1" vertex="1">
          <mxGeometry x="418" y="670" width="80" height="80" as="geometry" />
        </mxCell>
        <mxCell id="-CM3HtUl9LFQLTtHMWqZ-63" value="&lt;b&gt;&lt;font style=&quot;font-size: 16px;&quot;&gt;pais_id&lt;/font&gt;&lt;/b&gt;" style="ellipse;whiteSpace=wrap;html=1;rounded=0;" parent="1" vertex="1">
          <mxGeometry x="278" y="670" width="80" height="80" as="geometry" />
        </mxCell>
        <mxCell id="-CM3HtUl9LFQLTtHMWqZ-65" value="&lt;font style=&quot;font-size: 16px;&quot;&gt;&lt;b&gt;tipo_carrera_id&lt;/b&gt;&lt;/font&gt;" style="ellipse;whiteSpace=wrap;html=1;rounded=0;" parent="1" vertex="1">
          <mxGeometry x="733" y="70" width="130" height="80" as="geometry" />
        </mxCell>
        <mxCell id="-CM3HtUl9LFQLTtHMWqZ-67" value="&lt;font style=&quot;font-size: 16px;&quot;&gt;descripcion&lt;/font&gt;" style="ellipse;whiteSpace=wrap;html=1;rounded=0;" parent="1" vertex="1">
          <mxGeometry x="958" y="210" width="100" height="80" as="geometry" />
        </mxCell>
        <mxCell id="-CM3HtUl9LFQLTtHMWqZ-69" value="&lt;font style=&quot;font-size: 16px;&quot;&gt;distancia&lt;/font&gt;" style="ellipse;whiteSpace=wrap;html=1;rounded=0;" parent="1" vertex="1">
          <mxGeometry x="743" y="350" width="110" height="80" as="geometry" />
        </mxCell>
        <mxCell id="-CM3HtUl9LFQLTtHMWqZ-71" value="&lt;span style=&quot;font-size: 14px;&quot;&gt;&lt;b&gt;1&lt;/b&gt;&lt;/span&gt;" style="text;strokeColor=none;align=center;fillColor=none;html=1;verticalAlign=middle;whiteSpace=wrap;rounded=0;" parent="1" vertex="1">
          <mxGeometry x="403" y="300" width="60" height="30" as="geometry" />
        </mxCell>
        <mxCell id="-CM3HtUl9LFQLTtHMWqZ-73" value="&lt;span style=&quot;font-size: 14px;&quot;&gt;&lt;b&gt;M&lt;/b&gt;&lt;/span&gt;" style="text;strokeColor=none;align=center;fillColor=none;html=1;verticalAlign=middle;whiteSpace=wrap;rounded=0;" parent="1" vertex="1">
          <mxGeometry x="403" y="460" width="60" height="30" as="geometry" />
        </mxCell>
        <mxCell id="-CM3HtUl9LFQLTtHMWqZ-74" value="" style="edgeStyle=orthogonalEdgeStyle;rounded=0;orthogonalLoop=1;jettySize=auto;html=1;" parent="1" source="-CM3HtUl9LFQLTtHMWqZ-1" target="-CM3HtUl9LFQLTtHMWqZ-28" edge="1">
          <mxGeometry relative="1" as="geometry">
            <mxPoint x="328" y="250" as="sourcePoint" />
            <mxPoint x="138" y="810" as="targetPoint" />
          </mxGeometry>
        </mxCell>
        <mxCell id="-CM3HtUl9LFQLTtHMWqZ-75" value="" style="edgeStyle=orthogonalEdgeStyle;rounded=0;orthogonalLoop=1;jettySize=auto;html=1;" parent="1" source="-CM3HtUl9LFQLTtHMWqZ-1" target="-CM3HtUl9LFQLTtHMWqZ-28" edge="1">
          <mxGeometry relative="1" as="geometry">
            <mxPoint x="328" y="250" as="sourcePoint" />
            <mxPoint x="138" y="700" as="targetPoint" />
          </mxGeometry>
        </mxCell>
        <mxCell id="-CM3HtUl9LFQLTtHMWqZ-28" value="&lt;font style=&quot;font-size: 16px;&quot;&gt;fecha&lt;/font&gt;" style="ellipse;whiteSpace=wrap;html=1;rounded=0;" parent="1" vertex="1">
          <mxGeometry x="98" y="290" width="80" height="80" as="geometry" />
        </mxCell>
        <mxCell id="-CM3HtUl9LFQLTtHMWqZ-81" value="" style="edgeStyle=orthogonalEdgeStyle;rounded=0;orthogonalLoop=1;jettySize=auto;html=1;" parent="1" source="-CM3HtUl9LFQLTtHMWqZ-28" target="-CM3HtUl9LFQLTtHMWqZ-30" edge="1">
          <mxGeometry relative="1" as="geometry">
            <mxPoint x="138" y="370" as="sourcePoint" />
            <mxPoint x="138" y="810" as="targetPoint" />
          </mxGeometry>
        </mxCell>
        <mxCell id="-CM3HtUl9LFQLTtHMWqZ-30" value="&lt;font style=&quot;font-size: 16px;&quot;&gt;tiempo&lt;/font&gt;" style="ellipse;whiteSpace=wrap;html=1;rounded=0;" parent="1" vertex="1">
          <mxGeometry x="98" y="390" width="80" height="80" as="geometry" />
        </mxCell>
        <mxCell id="-CM3HtUl9LFQLTtHMWqZ-83" value="&lt;font style=&quot;font-size: 36px;&quot;&gt;&lt;b style=&quot;&quot;&gt;MODELO ENTIDAD - RELACION&lt;/b&gt;&lt;/font&gt;" style="text;strokeColor=none;align=center;fillColor=none;html=1;verticalAlign=middle;whiteSpace=wrap;rounded=0;" parent="1" vertex="1">
          <mxGeometry x="208" y="-150" width="620" height="60" as="geometry" />
        </mxCell>
      </root>
    </mxGraphModel>
  </diagram>
</mxfile>
